HIERARCHY
ROOT reference
{
  OFFSET -65.3212 -1.93545 -120.338
  CHANNELS 6 Xposition Yposition Zposition Zrotation Xrotation Yrotation
  JOINT Hips
  {
    OFFSET 0 78.7191 0
    CHANNELS 3 Zrotation Xrotation Yrotation
    JOINT Chest
    {
      OFFSET 0 8.7983 -4.7612
      CHANNELS 3 Zrotation Xrotation Yrotation
      JOINT Chest2
      {
        OFFSET 0 8.0291 0.4195
        CHANNELS 3 Zrotation Xrotation Yrotation
        JOINT Chest3
        {
          OFFSET 0 9.9351 -2.2114
          CHANNELS 3 Zrotation Xrotation Yrotation
          JOINT Neck
          {
            OFFSET 0 22.3885 -0.4656
            CHANNELS 3 Zrotation Xrotation Yrotation
            JOINT Head
            {
              OFFSET -0.0001 12.643 3.4389
              CHANNELS 3 Zrotation Xrotation Yrotation
              End Site
              {
                OFFSET 0.0001 17.6655 0.5274
              }
            }
          }
          JOINT LeftCollar
          {
            OFFSET 2.2603 21.606 7.4023
            CHANNELS 3 Zrotation Xrotation Yrotation
            JOINT LeftShoulder
            {
              OFFSET 13.5163 -1.1332 -5.0146
              CHANNELS 3 Zrotation Xrotation Yrotation
              JOINT LeftElbow
              {
                OFFSET -0.0995 -28.05 -0.2431
                CHANNELS 3 Zrotation Xrotation Yrotation
                JOINT LeftWrist
                {
                  OFFSET 0.0679 -23.3996 -0.1402
                  CHANNELS 3 Zrotation Xrotation Yrotation
                  JOINT LeftFinger1
                  {
                    OFFSET 0.7932 -9.069 2.5189
                    CHANNELS 3 Zrotation Xrotation Yrotation
                    JOINT LeftFinger11
                    {
                      OFFSET -0.8272 -3.3923 0.5977
                      CHANNELS 3 Zrotation Xrotation Yrotation
                      JOINT LeftFinger12
                      {
                        OFFSET -0.5649 -2.3158 0.4082
                        CHANNELS 3 Zrotation Xrotation Yrotation
                        End Site
                        {
                          OFFSET -0.4919 -1.6479 0.2673
                        }
                      }
                    }
                  }
                  JOINT LeftFinger2
                  {
                    OFFSET 0.9159 -9.2044 0.2193
                    CHANNELS 3 Zrotation Xrotation Yrotation
                    JOINT LeftFinger21
                    {
                      OFFSET 0.0117 -4.1944 -0.0248
                      CHANNELS 3 Zrotation Xrotation Yrotation
                      JOINT LeftFinger22
                      {
                        OFFSET 0.0071 -2.3249 -0.0142
                        CHANNELS 3 Zrotation Xrotation Yrotation
                        End Site
                        {
                          OFFSET -0.1475 -2.0882 0.0028
                        }
                      }
                    }
                  }
                  JOINT LeftFinger3
                  {
                    OFFSET 0.6113 -8.7231 -2.0637
                    CHANNELS 3 Zrotation Xrotation Yrotation
                    JOINT LeftFinger31
                    {
                      OFFSET -0.1927 -3.8059 -0.2383
                      CHANNELS 3 Zrotation Xrotation Yrotation
                      JOINT LeftFinger32
                      {
                        OFFSET -0.1091 -2.1688 -0.1362
                        CHANNELS 3 Zrotation Xrotation Yrotation
                        End Site
                        {
                          OFFSET -0.2358 -1.9176 -0.0906
                        }
                      }
                    }
                  }
                  JOINT LeftFinger4
                  {
                    OFFSET -0.6151 -8.0947 -3.5641
                    CHANNELS 3 Zrotation Xrotation Yrotation
                    JOINT LeftFinger41
                    {
                      OFFSET -0.4882 -2.341 -0.6462
                      CHANNELS 3 Zrotation Xrotation Yrotation
                      JOINT LeftFinger42
                      {
                        OFFSET -0.3575 -1.7167 -0.4742
                        CHANNELS 3 Zrotation Xrotation Yrotation
                        End Site
                        {
                          OFFSET -0.4187 -1.5237 -0.3496
                        }
                      }
                    }
                  }
                  JOINT LeftFinger0
                  {
                    OFFSET -1.42 -1.8761 1.4223
                    CHANNELS 3 Zrotation Xrotation Yrotation
                    JOINT LeftFinger01
                    {
                      OFFSET -1.1471 -3.4929 2.6334
                      CHANNELS 3 Zrotation Xrotation Yrotation
                      JOINT LeftFinger02
                      {
                        OFFSET -0.823 -2.3 1.6571
                        CHANNELS 3 Zrotation Xrotation Yrotation
                        End Site
                        {
                          OFFSET -0.5822 -1.6914 1.1582
                        }
                      }
                    }
                  }
                }
              }
            }
          }
          JOINT RightCollar
          {
            OFFSET -2.2603 21.606 7.4023
            CHANNELS 3 Zrotation Xrotation Yrotation
            JOINT RightShoulder
            {
              OFFSET -13.5187 -1.1334 -5.0155
              CHANNELS 3 Zrotation Xrotation Yrotation
              JOINT RightElbow
              {
                OFFSET 0.0994 -28.0499 -0.2431
                CHANNELS 3 Zrotation Xrotation Yrotation
                JOINT RightWrist
                {
                  OFFSET -0.0679 -23.3996 -0.1402
                  CHANNELS 3 Zrotation Xrotation Yrotation
                  JOINT RightFinger1
                  {
                    OFFSET -0.7932 -9.0691 2.5189
                    CHANNELS 3 Zrotation Xrotation Yrotation
                    JOINT RightFinger11
                    {
                      OFFSET 0.8272 -3.3923 0.5977
                      CHANNELS 3 Zrotation Xrotation Yrotation
                      JOINT RightFinger12
                      {
                        OFFSET 0.565 -2.3158 0.4082
                        CHANNELS 3 Zrotation Xrotation Yrotation
                        End Site
                        {
                          OFFSET 0.4919 -1.6479 0.2673
                        }
                      }
                    }
                  }
                  JOINT RightFinger2
                  {
                    OFFSET -0.916 -9.2044 0.2193
                    CHANNELS 3 Zrotation Xrotation Yrotation
                    JOINT RightFinger21
                    {
                      OFFSET -0.0117 -4.1944 -0.0248
                      CHANNELS 3 Zrotation Xrotation Yrotation
                      JOINT RightFinger22
                      {
                        OFFSET -0.0071 -2.3249 -0.0142
                        CHANNELS 3 Zrotation Xrotation Yrotation
                        End Site
                        {
                          OFFSET 0.1475 -2.0882 0.0028
                        }
                      }
                    }
                  }
                  JOINT RightFinger3
                  {
                    OFFSET -0.6113 -8.7231 -2.0637
                    CHANNELS 3 Zrotation Xrotation Yrotation
                    JOINT RightFinger31
                    {
                      OFFSET 0.1927 -3.8059 -0.2383
                      CHANNELS 3 Zrotation Xrotation Yrotation
                      JOINT RightFinger32
                      {
                        OFFSET 0.1091 -2.1688 -0.1362
                        CHANNELS 3 Zrotation Xrotation Yrotation
                        End Site
                        {
                          OFFSET 0.2358 -1.9176 -0.0906
                        }
                      }
                    }
                  }
                  JOINT RightFinger4
                  {
                    OFFSET 0.6151 -8.0947 -3.564
                    CHANNELS 3 Zrotation Xrotation Yrotation
                    JOINT RightFinger41
                    {
                      OFFSET 0.4882 -2.341 -0.6462
                      CHANNELS 3 Zrotation Xrotation Yrotation
                      JOINT RightFinger42
                      {
                        OFFSET 0.3574 -1.7166 -0.4742
                        CHANNELS 3 Zrotation Xrotation Yrotation
                        End Site
                        {
                          OFFSET 0.4187 -1.5237 -0.3496
                        }
                      }
                    }
                  }
                  JOINT RightFinger0
                  {
                    OFFSET 1.4199 -1.8761 1.4221
                    CHANNELS 3 Zrotation Xrotation Yrotation
                    JOINT RightFinger01
                    {
                      OFFSET 1.1472 -3.4929 2.6336
                      CHANNELS 3 Zrotation Xrotation Yrotation
                      JOINT RightFinger02
                      {
                        OFFSET 0.8229 -2.3 1.6571
                        CHANNELS 3 Zrotation Xrotation Yrotation
                        End Site
                        {
                          OFFSET 0.5822 -1.6914 1.1582
                        }
                      }
                    }
                  }
                }
              }
            }
          }
        }
      }
    }
    JOINT RightHip
    {
      OFFSET -9.412 3.9771 -0.7758
      CHANNELS 3 Zrotation Xrotation Yrotation
      JOINT RightKnee
      {
        OFFSET -0.7531 -40.938 0
        CHANNELS 3 Zrotation Xrotation Yrotation
        JOINT RightAnkle
        {
          OFFSET 0 -40.1986 0
          CHANNELS 3 Zrotation Xrotation Yrotation
          JOINT RightToe
          {
            OFFSET 0 -4.4182 9.239
            CHANNELS 3 Zrotation Xrotation Yrotation
            End Site
            {
              OFFSET 0 0 6.1981
            }
          }
        }
      }
    }
    JOINT LeftHip
    {
      OFFSET 9.4119 3.9773 -0.7758
      CHANNELS 3 Zrotation Xrotation Yrotation
      JOINT LeftKnee
      {
        OFFSET 0.7532 -40.9383 0
        CHANNELS 3 Zrotation Xrotation Yrotation
        JOINT LeftAnkle
        {
          OFFSET 0 -40.1986 0
          CHANNELS 3 Zrotation Xrotation Yrotation
          JOINT LeftToe
          {
            OFFSET 0 -4.4182 9.239
            CHANNELS 3 Zrotation Xrotation Yrotation
            End Site
            {
              OFFSET 0 0 6.1981
            }
          }
        }
      }
    }
  }
}
MOTION
Frames:	4
Frame Time:	0.0333333
-19.4151 -0.00994873 -23.3404 0 0 -0 3.41102 -7.45058 55.865 -0.417243 2.64678 -0.0488566 -0.833555 5.29386 -0.0785266 -0.833557 5.29385 -0.0785264 -0.930943 -9.06648 -20.948 1.80001 -2.88591 -19.198 -1.36987 0.158423 -10.6474 15.8793 21.9367 24.8866 -12.6161 -25.0795 -5.86306 -0.173577 4.83422 21.1793 -4.02847e-005 -2.53573e-005 0.000133718 -5.29045e-006 1.72924e-005 2.03386e-005 -4.3446e-005 8.51854e-006 3.70396e-005 -3.57264e-005 1.34594e-006 0.00014599 -0.0127737 0.00235855 9.0483e-005 2.0289e-005 -9.66392e-005 -1.78534e-005 -4.24067e-005 -1.40876e-005 -3.09451e-005 -0.0160746 0.00305051 0.000857838 2.37321e-005 3.47818e-005 3.15129e-005 -2.48006e-005 6.5794e-006 -1.21053e-005 -0.0125977 0.00309617 0.00286789 -1.25213e-007 4.02549e-005 3.98433e-005 2.23324e-005 -1.66379e-006 -1.48466e-006 -3.34248e-006 2.20364e-005 -5.77664e-007 -2.37348e-005 -1.02012e-005 1.94077e-006 -9.13303 0.124188 7.56505 -45.9701 -0.215888 -16.8367 74.7375 -52.6034 50.72 15.5323 -0.824638 -4.00829 1.73432e-005 1.3626e-005 2.5017e-005 1.67655e-005 2.08007e-005 3.90984e-006 -5.28167e-005 -5.61411e-005 4.26422e-005 8.29545e-006 1.9144e-006 8.42143e-005 0.0129361 0.00231162 -6.84626e-005 -1.14523e-006 -3.42241e-005 7.69065e-005 2.43841e-005 1.30091e-005 -5.9108e-006 0.0163556 0.00304391 -0.000840243 4.25462e-005 -0.00011447 9.29558e-005 3.10481e-005 2.67e-005 1.57771e-005 0.0146603 0.00361089 -0.0031301 -3.92201e-005 1.22352e-005 2.83772e-005 0.000123633 4.1063e-005 -7.26048e-005 -4.8509e-005 -1.82748e-005 8.84323e-007 4.62485e-005 4.07461e-005 -1.26063e-005 4.90033 10.2705 9.5115 -0.312633 1.23736 -2.32485 -3.29478 -0.519388 -18.6612 4.91562 -0.0393619 -0.24082 13.2849 13.0378 -11.5176 0.0768642 7.72737 0.395202 2.84697 -3.45119 -0.0564611 -9.64551 -5.3299 0.640811 
-19.4905 -0.177002 -24.5402 0 0 -0 3.44365 -8.17497 57.4725 -0.241015 2.60813 -0.269287 -0.470486 5.21734 -0.528291 -0.470485 5.21734 -0.528307 -0.978397 -8.50522 -21.7851 2.71329 -2.56932 -18.9307 -0.542886 0.140189 -10.895 15.6503 22.9669 24.9112 -13.1019 -24.3854 -7.08841 -1.23569 6.30491 19.5347 1.43989e-005 -1.46325e-005 7.91363e-006 1.5052e-006 1.16319e-005 4.03224e-005 -3.56617e-005 2.32722e-005 6.93627e-006 -4.95247e-006 1.41913e-006 -3.41155e-005 -0.0128288 0.00236954 0.000114478 3.33772e-005 -9.39175e-005 -2.27132e-005 -3.96023e-005 -3.05759e-005 -5.65902e-005 -0.0160167 0.00304427 0.00087563 5.06153e-005 5.2405e-005 6.97987e-005 -2.44039e-005 -9.74259e-006 -3.22464e-005 -0.0125472 0.00311012 0.00290816 2.4127e-005 4.26e-005 5.79457e-005 2.35697e-005 -1.13361e-006 4.05156e-005 2.39019e-006 -2.98637e-006 -1.31663e-005 -1.38712e-005 -9.58721e-006 1.45436e-005 -10.0987 0.169128 5.9262 -48.1967 1.02154 -20.8171 52.0542 -51.3149 38.8082 16.1445 -1.06131 -15.5611 1.92487e-005 2.89703e-005 6.37431e-005 1.95745e-005 -6.39744e-006 1.29444e-005 -5.40248e-005 -3.57087e-005 7.76506e-005 1.40485e-005 1.75371e-005 0.000145522 0.0129562 0.00230535 -3.65859e-005 -5.97719e-006 -0.000111327 0.000160197 2.21672e-005 3.109e-006 -2.28917e-005 0.0163586 0.00301034 -0.000804806 1.09948e-005 -2.84976e-005 -8.1166e-007 2.25646e-005 2.34001e-005 1.23065e-005 0.014572 0.00365923 -0.00325521 -2.68591e-005 -1.13114e-005 1.84779e-005 0.000115793 3.51993e-005 -0.000130751 -3.69781e-005 -2.80818e-005 2.10094e-005 3.68745e-005 2.91948e-005 -7.44544e-006 5.07439 10.5019 8.30368 -0.42561 0.732919 -2.30564 -2.81099 -0.323133 -19.046 4.65573 0.290809 -0.256674 13.8311 14.677 -7.83021 0.0916757 4.62637 0.366362 2.81156 -4.25874 -0.605656 -8.2154 -5.37011 0.374734 
-19.5832 -0.29364 -25.8665 0 0 -0 3.18124 -8.49462 59.5875 -0.11017 2.5024 -0.39641 -0.20328 5.00551 -0.789107 -0.20328 5.00551 -0.789118 -1.06465 -8.03662 -23.3661 3.71649 -2.25521 -19.207 -0.576378 0.0909198 -11.4311 17.3851 23.4578 25.0096 -14.156 -24.3515 -8.04189 -3.04682 7.47255 16.0692 -1.34204e-005 3.73778e-006 2.88197e-005 -1.3265e-005 3.24008e-005 6.78906e-005 -4.58436e-005 2.03085e-005 4.10401e-005 -2.73511e-005 3.37723e-005 1.94593e-005 -0.0128574 0.00236883 0.000104421 3.0328e-005 -6.87759e-005 -1.62391e-005 -4.81026e-005 -1.0234e-005 -5.13707e-005 -0.0160771 0.00306403 0.000887562 8.87068e-005 0.000110211 0.000114003 -3.88243e-005 2.49908e-005 -3.34951e-005 -0.0125675 0.00314883 0.00299619 9.72756e-006 7.97007e-005 6.99247e-005 1.01351e-005 -2.07865e-006 9.88148e-005 1.42087e-006 1.27863e-005 -1.07719e-006 -1.58855e-005 -1.59081e-005 1.2134e-006 -11.0713 0.209256 4.46226 -50.9051 1.28989 -26.7775 27.6216 -44.5331 19.0481 14.4474 -1.07533 -24.6323 1.70792e-005 4.29634e-005 0.000102894 1.07179e-005 6.71972e-006 1.84186e-005 -3.81722e-005 -6.86701e-005 0.000131067 2.24941e-005 1.18211e-005 -1.74243e-005 0.0129973 0.00228962 -2.04996e-005 -2.47229e-005 -2.47489e-006 -1.86503e-006 2.97362e-005 1.06392e-005 -1.94316e-005 0.0164021 0.00300779 -0.000756694 3.95629e-005 -3.04339e-005 -1.25095e-005 3.71055e-005 3.50293e-005 9.18829e-006 0.0146735 0.00371062 -0.00328682 -1.81072e-005 -3.87697e-005 5.0145e-005 0.000113475 -4.78177e-008 -0.000252148 -4.55077e-005 -1.27192e-005 1.72502e-005 3.02161e-005 4.93696e-005 -6.89159e-006 5.07598 10.3685 6.83047 -0.560943 0.0115139 -2.27771 -2.42889 0.10284 -19.4601 4.41953 0.557104 -0.261892 13.9462 14.0169 -6.44395 0.115084 3.6886 0.404088 2.00863 -7.21329 -1.06323 -3.7236 -2.31156 0.0770833 
-19.6637 -0.309456 -27.2729 0 0 -0 3.0834 -8.50146 62.5291 -0.062979 2.43698 -0.474283 -0.105891 4.87441 -0.947183 -0.105891 4.87441 -0.947187 -1.15807 -7.86638 -25.2687 4.80739 -1.9639 -19.9217 -1.0869 0.0391159 -11.9678 20.6275 22.9686 25.0861 -15.572 -24.7663 -8.44253 -4.31325 8.04367 12.7619 -4.44864e-006 3.47037e-006 3.36857e-005 -4.23438e-006 2.58268e-005 0.000165048 -2.73067e-005 2.53483e-005 4.32829e-005 -1.33482e-005 1.61806e-005 3.44646e-005 -0.0128096 0.00235648 0.000110099 5.82749e-005 -5.47195e-005 2.20026e-005 -4.42823e-005 -8.38691e-006 -1.82501e-005 -0.0160844 0.00307026 0.00092564 3.505e-005 -1.9403e-005 7.63012e-007 -2.88506e-005 9.87697e-006 -6.68428e-006 -0.0126261 0.00307995 0.00284022 6.31032e-005 0.000101229 0.000131067 3.62991e-005 1.62074e-005 -4.36841e-005 -1.32106e-005 3.15291e-005 3.23838e-005 -2.55266e-005 -1.25957e-005 2.83405e-006 -12.2503 0.229375 3.59585 -55.0267 2.12523 -32.7807 7.9662 -33.0151 0.303812 9.64286 -4.04343 -43.1824 2.837e-005 2.7787e-006 -2.32709e-005 -4.41909e-006 -1.5256e-005 8.44714e-005 -3.72087e-005 -8.17764e-005 0.000214402 2.28554e-005 -1.53489e-005 -9.95024e-006 0.0129885 0.00229076 1.41292e-005 -2.55962e-005 -1.67452e-005 1.46003e-005 2.94827e-005 5.9234e-007 -3.24324e-005 0.0163638 0.00293946 -0.000652746 2.23209e-005 -3.79374e-005 -1.35459e-005 5.49736e-006 3.66172e-005 6.69916e-005 0.0145299 0.00364532 -0.00324836 -2.25521e-005 -4.7641e-005 5.12914e-005 0.000104511 3.0479e-005 9.45743e-006 -4.14037e-005 -5.37251e-005 9.71098e-006 3.84704e-005 4.91978e-005 -1.17947e-008 4.89108 9.8995 5.12952 -0.729109 0.00144823 -2.2218 -1.88072 0.261383 -20.6817 4.70398 0.793278 -0.324055 13.906 12.6668 -7.71946 0.11201 3.26629 0.288017 0.260791 -8.73699 -1.7022 -0.739972 -0.688036 0.00134522 
